<?xml version="1.0" encoding="UTF-8" standalone="no"?>
<!DOCTYPE svg PUBLIC "-//W3C//DTD SVG 1.1//EN" "http://www.w3.org/Graphics/SVG/1.1/DTD/svg11.dtd">
<svg width="100%" height="100%" viewBox="0 0 2481 2481" version="1.1" xmlns="http://www.w3.org/2000/svg" xmlns:xlink="http://www.w3.org/1999/xlink" xml:space="preserve" xmlns:serif="http://www.serif.com/" style="fill-rule:evenodd;clip-rule:evenodd;stroke-linejoin:round;stroke-miterlimit:2;">
    <g transform="matrix(20.992,0,0,20.992,-6257.81,-5693.43)">
        <g transform="matrix(-0.998503,-0.0546971,-0.0546971,0.998503,367.229,335.975)">
            <path d="M-1.217,-44.464C-13.505,-44.466 -23.467,-34.505 -23.466,-22.215C-23.465,-9.928 -13.505,0.034 -1.217,0.035C11.07,0.034 21.033,-9.927 21.033,-22.215C21.034,-34.503 11.071,-44.465 -1.217,-44.464" style="fill:rgb(35,25,22);"/>
        </g>
        <g transform="matrix(-0.998508,-0.0546081,-0.0546081,0.998508,368.889,320.886)">
            <path d="M-0.385,-14.128C-4.289,-14.129 -7.454,-10.962 -7.455,-7.058C-7.454,-3.154 -4.289,0.01 -0.385,0.01C3.519,0.01 6.683,-3.154 6.685,-7.058C6.683,-10.965 3.519,-14.127 -0.385,-14.128" style="fill:rgb(253,106,49);"/>
        </g>
        <g transform="matrix(-0.998524,-0.0543038,-0.0543038,0.998524,369.56,314.757)">
            <path d="M-0.05,-1.803C-0.548,-1.803 -0.952,-1.4 -0.952,-0.902C-0.951,-0.404 -0.548,0.001 -0.05,0.001C0.448,0 0.853,-0.402 0.852,-0.903C0.852,-1.401 0.449,-1.803 -0.05,-1.803" style="fill:rgb(35,25,22);"/>
        </g>
        <g transform="matrix(0.743943,-0.668243,-0.668243,-0.743943,357.161,300.501)">
            <path d="M0.392,0.15C2.157,0.148 3.847,-0.062 5.412,-0.442C3.898,0.18 2.194,0.531 0.392,0.533C-1.409,0.536 -3.113,0.189 -4.629,-0.431C-3.063,-0.054 -1.371,0.15 0.392,0.15" style="fill:rgb(253,106,49);"/>
        </g>
        <g transform="matrix(0.747409,-0.664364,-0.664364,-0.747409,357.812,301.19)">
            <path d="M0.366,0.14C2.025,0.147 3.617,-0.042 5.087,-0.391C3.661,0.187 2.057,0.508 0.366,0.502C-1.329,0.495 -2.929,0.16 -4.352,-0.43C-2.882,-0.068 -1.292,0.133 0.366,0.14" style="fill:rgb(253,106,49);"/>
        </g>
        <g transform="matrix(0.738999,-0.673706,-0.673706,-0.738999,358.462,301.886)">
            <path d="M0.35,0.131C1.902,0.117 3.39,-0.077 4.763,-0.424C3.434,0.134 1.937,0.455 0.35,0.468C-1.233,0.481 -2.736,0.187 -4.074,-0.348C-2.696,-0.024 -1.204,0.143 0.35,0.131" style="fill:rgb(253,106,49);"/>
        </g>
        <g transform="matrix(0.741234,-0.671246,-0.671246,-0.741234,359.114,302.575)">
            <path d="M0.324,0.122C1.77,0.114 3.159,-0.061 4.441,-0.38C3.198,0.137 1.802,0.431 0.324,0.437C-1.154,0.445 -2.554,0.167 -3.8,-0.337C-2.515,-0.034 -1.126,0.129 0.324,0.122" style="fill:rgb(253,106,49);"/>
        </g>
        <g transform="matrix(0.746845,-0.664999,-0.664999,-0.746845,359.764,303.263)">
            <path d="M0.296,0.115C1.639,0.12 2.926,-0.034 4.118,-0.32C2.964,0.15 1.666,0.411 0.296,0.408C-1.074,0.403 -2.37,0.133 -3.521,-0.343C-2.333,-0.051 -1.046,0.11 0.296,0.115" style="fill:rgb(253,106,49);"/>
        </g>
        <g transform="matrix(0.741624,-0.670816,-0.670816,-0.741624,360.414,303.956)">
            <path d="M0.277,0.105C1.513,0.1 2.698,-0.052 3.794,-0.323C2.733,0.117 1.539,0.367 0.277,0.373C-0.986,0.379 -2.181,0.141 -3.245,-0.291C-2.148,-0.029 -0.961,0.109 0.277,0.105" style="fill:rgb(253,106,49);"/>
        </g>
        <g transform="matrix(0.746513,-0.665371,-0.665371,-0.746513,361.065,304.644)">
            <path d="M0.25,0.095C1.381,0.098 2.466,-0.03 3.469,-0.272C2.497,0.126 1.404,0.345 0.25,0.342C-0.906,0.337 -1.997,0.112 -2.969,-0.29C-1.965,-0.043 -0.881,0.093 0.25,0.095" style="fill:rgb(253,106,49);"/>
        </g>
        <g transform="matrix(0.746416,-0.665479,-0.665479,-0.746416,361.716,305.336)">
            <path d="M0.226,0.088C1.252,0.09 2.236,-0.027 3.147,-0.246C2.265,0.112 1.273,0.314 0.226,0.31C-0.821,0.309 -1.812,0.102 -2.691,-0.26C-1.783,-0.038 -0.799,0.085 0.226,0.088" style="fill:rgb(253,106,49);"/>
        </g>
        <g transform="matrix(0.748517,-0.663116,-0.663116,-0.748517,362.365,306.026)">
            <path d="M0.202,0.079C1.125,0.084 2.007,-0.02 2.824,-0.212C2.031,0.107 1.14,0.284 0.202,0.278C-0.738,0.272 -1.624,0.087 -2.414,-0.243C-1.598,-0.04 -0.717,0.073 0.202,0.079" style="fill:rgb(253,106,49);"/>
        </g>
        <g transform="matrix(0.743012,-0.669278,-0.669278,-0.743012,363.016,306.717)">
            <path d="M0.181,0.069C0.996,0.068 1.777,-0.03 2.499,-0.207C1.8,0.081 1.014,0.243 0.181,0.245C-0.649,0.247 -1.438,0.09 -2.138,-0.196C-1.416,-0.023 -0.633,0.07 0.181,0.069" style="fill:rgb(253,106,49);"/>
        </g>
        <g transform="matrix(-0.746401,0.665497,0.665497,0.746401,380.99,327.09)">
            <path d="M-0.395,1.023C-2.159,1.017 -3.849,0.807 -5.413,0.423C-3.899,1.048 -2.196,1.4 -0.395,1.406C1.406,1.409 3.11,1.066 4.628,0.449C3.062,0.823 1.369,1.027 -0.395,1.023" style="fill:rgb(253,106,49);"/>
        </g>
        <g transform="matrix(-0.746333,0.665573,0.665573,0.746333,380.409,326.405)">
            <path d="M-0.37,0.963C-2.028,0.958 -3.618,0.759 -5.088,0.399C-3.665,0.986 -2.064,1.319 -0.37,1.322C1.323,1.326 2.925,1.003 4.351,0.423C2.88,0.774 1.289,0.967 -0.37,0.963" style="fill:rgb(253,106,49);"/>
        </g>
        <g transform="matrix(-0.744468,0.667658,0.667658,0.744468,379.827,325.725)">
            <path d="M-0.346,0.901C-1.899,0.9 -3.389,0.72 -4.766,0.385C-3.431,0.932 -1.932,1.237 -0.346,1.239C1.241,1.238 2.74,0.93 4.075,0.383C2.697,0.718 1.207,0.901 -0.346,0.901" style="fill:rgb(253,106,49);"/>
        </g>
        <g transform="matrix(-0.744242,0.66791,0.66791,0.744242,379.248,325.043)">
            <path d="M-0.323,0.837C-1.769,0.838 -3.158,0.669 -4.442,0.36C-3.197,0.867 -1.799,1.154 -0.323,1.151C1.155,1.151 2.554,0.865 3.799,0.353C2.514,0.665 1.127,0.836 -0.323,0.837" style="fill:rgb(253,106,49);"/>
        </g>
        <g transform="matrix(-0.748931,0.662648,0.662648,0.748931,378.667,324.355)">
            <path d="M-0.302,0.778C-1.643,0.769 -2.93,0.605 -4.119,0.308C-2.968,0.786 -1.674,1.062 -0.302,1.068C1.067,1.078 2.365,0.82 3.522,0.356C2.328,0.637 1.041,0.786 -0.302,0.778" style="fill:rgb(253,106,49);"/>
        </g>
        <g transform="matrix(-0.743294,0.668965,0.668965,0.743294,378.085,323.675)">
            <path d="M-0.274,0.718C-1.51,0.721 -2.698,0.576 -3.795,0.313C-2.733,0.747 -1.537,0.988 -0.274,0.987C0.989,0.984 2.182,0.737 3.245,0.3C2.148,0.568 0.961,0.715 -0.274,0.718" style="fill:rgb(253,106,49);"/>
        </g>
        <g transform="matrix(-0.744709,0.667389,0.667389,0.744709,377.506,322.992)">
            <path d="M-0.252,0.654C-1.383,0.654 -2.468,0.522 -3.47,0.278C-2.498,0.677 -1.405,0.9 -0.252,0.9C0.903,0.899 1.995,0.678 2.968,0.28C1.964,0.523 0.881,0.655 -0.252,0.654" style="fill:rgb(253,106,49);"/>
        </g>
        <g transform="matrix(-0.746416,0.665479,0.665479,0.746416,376.925,322.307)">
            <path d="M-0.229,0.596C-1.256,0.591 -2.239,0.47 -3.147,0.247C-2.267,0.61 -1.277,0.815 -0.229,0.819C0.818,0.821 1.81,0.62 2.691,0.262C1.781,0.479 0.798,0.598 -0.229,0.596" style="fill:rgb(253,106,49);"/>
        </g>
        <g transform="matrix(-0.743794,0.668409,0.668409,0.743794,376.343,321.625)">
            <path d="M-0.205,0.535C-1.125,0.536 -2.007,0.429 -2.824,0.231C-2.033,0.555 -1.144,0.736 -0.205,0.734C0.735,0.733 1.624,0.55 2.414,0.225C1.599,0.423 0.716,0.532 -0.205,0.535" style="fill:rgb(253,106,49);"/>
        </g>
        <g transform="matrix(-0.745241,0.666795,0.666795,0.745241,375.764,320.941)">
            <path d="M-0.181,0.472C-0.995,0.471 -1.777,0.375 -2.499,0.199C-1.8,0.488 -1.012,0.648 -0.181,0.65C0.651,0.651 1.439,0.49 2.138,0.204C1.416,0.379 0.634,0.473 -0.181,0.472" style="fill:rgb(253,106,49);"/>
        </g>
    </g>
</svg>
