<?xml version="1.0" encoding="UTF-8" standalone="no"?>
<!DOCTYPE svg PUBLIC "-//W3C//DTD SVG 1.1//EN" "http://www.w3.org/Graphics/SVG/1.1/DTD/svg11.dtd">
<svg width="100%" height="100%" viewBox="0 0 2481 2481" version="1.1" xmlns="http://www.w3.org/2000/svg" xmlns:xlink="http://www.w3.org/1999/xlink" xml:space="preserve" xmlns:serif="http://www.serif.com/" style="fill-rule:evenodd;clip-rule:evenodd;stroke-linejoin:round;stroke-miterlimit:2;">
    <g transform="matrix(20.992,0,0,20.992,-6257.81,-5693.43)">
        <g transform="matrix(1,0,0,1,370.999,371.115)">
            <path d="M0,-81.724C13.513,-80.983 23.867,-69.429 23.129,-55.915C22.388,-42.402 10.834,-32.047 -2.68,-32.788C-16.193,-33.528 -26.548,-45.081 -25.809,-58.595C-25.067,-72.108 -13.514,-82.463 0,-81.724M-51.725,-44.839C-52.746,-44.755 -54.837,-46.085 -54.69,-42.466C-54.546,-39.461 -54.318,-37.08 -56.13,-35.316C-58.347,-33.155 -59.476,-30.911 -58.44,-27.962C-55.297,-19.029 -41.015,-25.868 -37.09,-16.305C-36.006,-13.666 -35.9,-10.192 -34.418,-7.76C-32.733,2.682 -41.306,15.016 -39.732,17.479C-19.249,4.276 0.593,-8.828 19.913,-6.565C9.217,-24.263 27.526,-36.521 30.256,-50.078C34.197,-69.668 25.584,-85.519 7.24,-92.622C-3.114,-96.083 -13.024,-99.203 -23.621,-93.521C-27.328,-91.533 -34.878,-86.858 -38.113,-83.37L-41.977,-79.244C-46.813,-73.251 -41.947,-70.697 -45.153,-67.837C-48.117,-65.196 -55.477,-61.718 -56.781,-60.303C-58.464,-58.478 -54.199,-54.619 -52.598,-53.65C-51.797,-53.165 -50.666,-52.575 -51.067,-51.191C-51.315,-48.137 -53.296,-49.256 -53.7,-47.167C-53.857,-46.353 -52.881,-45.674 -51.725,-44.839" style="fill:rgb(35,25,22);"/>
        </g>
        <g transform="matrix(1,0,0,1,377.122,268.715)">
            <path d="M0,34.749C0,34.749 9.845,17.361 9.535,11.17C9.165,3.758 -3.335,0 -8.374,6.987L-4.961,8.034C-4.961,8.034 -3.697,5.984 1.074,7.712C6.419,9.648 -1.938,23.529 -6.406,31.549L0,34.749Z" style="fill:rgb(253,106,49);"/>
        </g>
    </g>
</svg>
